<?xml version="1.0" encoding="UTF-8" standalone="no"?>
<!DOCTYPE svg PUBLIC "-//W3C//DTD SVG 1.1//EN"
 "http://www.w3.org/Graphics/SVG/1.1/DTD/svg11.dtd">
<!-- Generated by graphviz version 2.40.1 (20161225.0304)
 -->
<!-- Title: graph_name Pages: 1 -->
<svg width="380pt" height="2060pt"
 viewBox="0.00 0.00 380.22 2060.00" xmlns="http://www.w3.org/2000/svg" xmlns:xlink="http://www.w3.org/1999/xlink">
<g id="graph0" class="graph" transform="scale(1 1) rotate(0) translate(4 2056)">
<title>graph_name</title>
<polygon fill="#ffffff" stroke="transparent" points="-4,4 -4,-2056 376.2244,-2056 376.2244,4 -4,4"/>
<!-- 西航花园 -->
<g id="node1" class="node">
<title>西航花园</title>
<ellipse fill="none" stroke="#000000" cx="156.022" cy="-2034" rx="59.6743" ry="18"/>
<text text-anchor="middle" x="156.022" y="-2029.8" font-family="Times,serif" font-size="14.00" fill="#ff0000">西航花园</text>
</g>
<!-- 东风路灞河桥西 -->
<g id="node3" class="node">
<title>东风路灞河桥西</title>
<ellipse fill="none" stroke="#000000" cx="156.022" cy="-1962" rx="92.9536" ry="18"/>
<text text-anchor="middle" x="156.022" y="-1957.8" font-family="Times,serif" font-size="14.00" fill="#000000">东风路灞河桥西</text>
</g>
<!-- 西航花园&#45;&gt;东风路灞河桥西 -->
<g id="edge1" class="edge">
<title>西航花园&#45;&gt;东风路灞河桥西</title>
<path fill="none" stroke="#0000ff" d="M156.022,-2015.8314C156.022,-2008.131 156.022,-1998.9743 156.022,-1990.4166"/>
<polygon fill="#0000ff" stroke="#0000ff" points="159.5221,-1990.4132 156.022,-1980.4133 152.5221,-1990.4133 159.5221,-1990.4132"/>
</g>
<!-- 市图书馆 -->
<g id="node2" class="node">
<title>市图书馆</title>
<ellipse fill="none" stroke="#000000" cx="174.022" cy="-18" rx="52.132" ry="18"/>
<text text-anchor="middle" x="174.022" y="-13.8" font-family="Times,serif" font-size="14.00" fill="#ff0000">市图书馆</text>
</g>
<!-- 家润碧泽园 -->
<g id="node4" class="node">
<title>家润碧泽园</title>
<ellipse fill="none" stroke="#000000" cx="156.022" cy="-1890" rx="71.6467" ry="18"/>
<text text-anchor="middle" x="156.022" y="-1885.8" font-family="Times,serif" font-size="14.00" fill="#000000">家润碧泽园</text>
</g>
<!-- 东风路灞河桥西&#45;&gt;家润碧泽园 -->
<g id="edge2" class="edge">
<title>东风路灞河桥西&#45;&gt;家润碧泽园</title>
<path fill="none" stroke="#0000ff" d="M156.022,-1943.8314C156.022,-1936.131 156.022,-1926.9743 156.022,-1918.4166"/>
<polygon fill="#0000ff" stroke="#0000ff" points="159.5221,-1918.4132 156.022,-1908.4133 152.5221,-1918.4133 159.5221,-1918.4132"/>
</g>
<!-- 八家十字 -->
<g id="node5" class="node">
<title>八家十字</title>
<ellipse fill="none" stroke="#000000" cx="156.022" cy="-1818" rx="48.2716" ry="18"/>
<text text-anchor="middle" x="156.022" y="-1813.8" font-family="Times,serif" font-size="14.00" fill="#000000">八家十字</text>
</g>
<!-- 家润碧泽园&#45;&gt;八家十字 -->
<g id="edge3" class="edge">
<title>家润碧泽园&#45;&gt;八家十字</title>
<path fill="none" stroke="#0000ff" d="M156.022,-1871.8314C156.022,-1864.131 156.022,-1854.9743 156.022,-1846.4166"/>
<polygon fill="#0000ff" stroke="#0000ff" points="159.5221,-1846.4132 156.022,-1836.4133 152.5221,-1846.4133 159.5221,-1846.4132"/>
</g>
<!-- 王家堡 -->
<g id="node6" class="node">
<title>王家堡</title>
<ellipse fill="none" stroke="#000000" cx="156.022" cy="-1746" rx="38.4573" ry="18"/>
<text text-anchor="middle" x="156.022" y="-1741.8" font-family="Times,serif" font-size="14.00" fill="#000000">王家堡</text>
</g>
<!-- 八家十字&#45;&gt;王家堡 -->
<g id="edge4" class="edge">
<title>八家十字&#45;&gt;王家堡</title>
<path fill="none" stroke="#0000ff" d="M156.022,-1799.8314C156.022,-1792.131 156.022,-1782.9743 156.022,-1774.4166"/>
<polygon fill="#0000ff" stroke="#0000ff" points="159.5221,-1774.4132 156.022,-1764.4133 152.5221,-1774.4133 159.5221,-1774.4132"/>
</g>
<!-- 陈家堡 -->
<g id="node7" class="node">
<title>陈家堡</title>
<ellipse fill="none" stroke="#000000" cx="156.022" cy="-1674" rx="43.0715" ry="18"/>
<text text-anchor="middle" x="156.022" y="-1669.8" font-family="Times,serif" font-size="14.00" fill="#000000">陈家堡</text>
</g>
<!-- 王家堡&#45;&gt;陈家堡 -->
<g id="edge5" class="edge">
<title>王家堡&#45;&gt;陈家堡</title>
<path fill="none" stroke="#0000ff" d="M156.022,-1727.8314C156.022,-1720.131 156.022,-1710.9743 156.022,-1702.4166"/>
<polygon fill="#0000ff" stroke="#0000ff" points="159.5221,-1702.4132 156.022,-1692.4133 152.5221,-1702.4133 159.5221,-1702.4132"/>
</g>
<!-- 景家村 -->
<g id="node8" class="node">
<title>景家村</title>
<ellipse fill="none" stroke="#000000" cx="156.022" cy="-1602" rx="40.7647" ry="18"/>
<text text-anchor="middle" x="156.022" y="-1597.8" font-family="Times,serif" font-size="14.00" fill="#000000">景家村</text>
</g>
<!-- 陈家堡&#45;&gt;景家村 -->
<g id="edge6" class="edge">
<title>陈家堡&#45;&gt;景家村</title>
<path fill="none" stroke="#0000ff" d="M156.022,-1655.8314C156.022,-1648.131 156.022,-1638.9743 156.022,-1630.4166"/>
<polygon fill="#0000ff" stroke="#0000ff" points="159.5221,-1630.4132 156.022,-1620.4133 152.5221,-1630.4133 159.5221,-1630.4132"/>
</g>
<!-- 西安工业大学未央校区 -->
<g id="node9" class="node">
<title>西安工业大学未央校区</title>
<ellipse fill="none" stroke="#000000" cx="168.022" cy="-1098" rx="109.7855" ry="18"/>
<text text-anchor="middle" x="168.022" y="-1093.8" font-family="Times,serif" font-size="14.00" fill="#000000">西安工业大学未央校区</text>
</g>
<!-- 景家村&#45;&gt;西安工业大学未央校区 -->
<g id="edge7" class="edge">
<title>景家村&#45;&gt;西安工业大学未央校区</title>
<path fill="none" stroke="#0000ff" d="M124.1182,-1590.5309C103.2798,-1581.6619 76.746,-1567.573 59.022,-1548 29.7603,-1515.6859 20.022,-1501.5941 20.022,-1458 20.022,-1458 20.022,-1458 20.022,-1242 20.022,-1184.9352 77.2418,-1143.1615 120.5242,-1119.7256"/>
<polygon fill="#0000ff" stroke="#0000ff" points="122.2941,-1122.7496 129.523,-1115.0041 119.0417,-1116.551 122.2941,-1122.7496"/>
</g>
<!-- 北辰路元朔大道口 -->
<g id="node24" class="node">
<title>北辰路元朔大道口</title>
<ellipse fill="none" stroke="#000000" cx="156.022" cy="-1530" rx="88.4009" ry="18"/>
<text text-anchor="middle" x="156.022" y="-1525.8" font-family="Times,serif" font-size="14.00" fill="#ff0000">北辰路元朔大道口</text>
</g>
<!-- 景家村&#45;&gt;北辰路元朔大道口 -->
<g id="edge45" class="edge">
<title>景家村&#45;&gt;北辰路元朔大道口</title>
<path fill="none" stroke="#00ff00" d="M156.022,-1583.8314C156.022,-1576.131 156.022,-1566.9743 156.022,-1558.4166"/>
<polygon fill="#00ff00" stroke="#00ff00" points="159.5221,-1558.4132 156.022,-1548.4133 152.5221,-1558.4133 159.5221,-1558.4132"/>
</g>
<!-- 陕西科技大学 -->
<g id="node10" class="node">
<title>陕西科技大学</title>
<ellipse fill="none" stroke="#000000" cx="168.022" cy="-1026" rx="74.1252" ry="18"/>
<text text-anchor="middle" x="168.022" y="-1021.8" font-family="Times,serif" font-size="14.00" fill="#000000">陕西科技大学</text>
</g>
<!-- 西安工业大学未央校区&#45;&gt;陕西科技大学 -->
<g id="edge8" class="edge">
<title>西安工业大学未央校区&#45;&gt;陕西科技大学</title>
<path fill="none" stroke="#0000ff" d="M156.1172,-1079.8314C154.5932,-1072.0125 154.1612,-1062.6923 154.821,-1054.0221"/>
<polygon fill="#0000ff" stroke="#0000ff" points="158.3164,-1054.288 156.1674,-1043.9134 151.3777,-1053.3638 158.3164,-1054.288"/>
</g>
<!-- 西安工业大学未央校区&#45;&gt;陕西科技大学 -->
<g id="edge29" class="edge">
<title>西安工业大学未央校区&#45;&gt;陕西科技大学</title>
<path fill="none" stroke="#ff0000" d="M168.022,-1079.8314C168.022,-1072.131 168.022,-1062.9743 168.022,-1054.4166"/>
<polygon fill="#ff0000" stroke="#ff0000" points="171.5221,-1054.4132 168.022,-1044.4133 164.5221,-1054.4133 171.5221,-1054.4132"/>
</g>
<!-- 西安工业大学未央校区&#45;&gt;陕西科技大学 -->
<g id="edge41" class="edge">
<title>西安工业大学未央校区&#45;&gt;陕西科技大学</title>
<path fill="none" stroke="#00ff00" d="M179.9267,-1079.8314C181.4507,-1072.0125 181.8827,-1062.6923 181.2229,-1054.0221"/>
<polygon fill="#00ff00" stroke="#00ff00" points="184.6662,-1053.3638 179.8765,-1043.9134 177.7275,-1054.288 184.6662,-1053.3638"/>
</g>
<!-- 杜家堡 -->
<g id="node11" class="node">
<title>杜家堡</title>
<ellipse fill="none" stroke="#000000" cx="168.022" cy="-954" rx="38.4573" ry="18"/>
<text text-anchor="middle" x="168.022" y="-949.8" font-family="Times,serif" font-size="14.00" fill="#000000">杜家堡</text>
</g>
<!-- 陕西科技大学&#45;&gt;杜家堡 -->
<g id="edge9" class="edge">
<title>陕西科技大学&#45;&gt;杜家堡</title>
<path fill="none" stroke="#0000ff" d="M156.1905,-1008.2022C154.5696,-1000.1209 154.1297,-990.3788 154.8707,-981.396"/>
<polygon fill="#0000ff" stroke="#0000ff" points="158.3574,-981.7343 156.283,-971.3446 151.4255,-980.7603 158.3574,-981.7343"/>
</g>
<!-- 陕西科技大学&#45;&gt;杜家堡 -->
<g id="edge30" class="edge">
<title>陕西科技大学&#45;&gt;杜家堡</title>
<path fill="none" stroke="#ff0000" d="M168.022,-1007.8314C168.022,-1000.131 168.022,-990.9743 168.022,-982.4166"/>
<polygon fill="#ff0000" stroke="#ff0000" points="171.5221,-982.4132 168.022,-972.4133 164.5221,-982.4133 171.5221,-982.4132"/>
</g>
<!-- 陕西科技大学&#45;&gt;杜家堡 -->
<g id="edge42" class="edge">
<title>陕西科技大学&#45;&gt;杜家堡</title>
<path fill="none" stroke="#00ff00" d="M179.8534,-1008.2022C181.4743,-1000.1209 181.9142,-990.3788 181.1732,-981.396"/>
<polygon fill="#00ff00" stroke="#00ff00" points="184.6184,-980.7603 179.7609,-971.3446 177.6865,-981.7343 184.6184,-980.7603"/>
</g>
<!-- 显庆路中段 -->
<g id="node12" class="node">
<title>显庆路中段</title>
<ellipse fill="none" stroke="#000000" cx="254.022" cy="-882" rx="61.1635" ry="18"/>
<text text-anchor="middle" x="254.022" y="-877.8" font-family="Times,serif" font-size="14.00" fill="#000000">显庆路中段</text>
</g>
<!-- 杜家堡&#45;&gt;显庆路中段 -->
<g id="edge10" class="edge">
<title>杜家堡&#45;&gt;显庆路中段</title>
<path fill="none" stroke="#0000ff" d="M187.1081,-938.0209C198.393,-928.5731 212.8999,-916.4277 225.5199,-905.8622"/>
<polygon fill="#0000ff" stroke="#0000ff" points="228.0669,-908.2945 233.4877,-899.1915 223.5733,-902.9272 228.0669,-908.2945"/>
</g>
<!-- 昭远门路显庆路口 -->
<g id="node13" class="node">
<title>昭远门路显庆路口</title>
<ellipse fill="none" stroke="#000000" cx="271.022" cy="-810" rx="101.4053" ry="18"/>
<text text-anchor="middle" x="271.022" y="-805.8" font-family="Times,serif" font-size="14.00" fill="#000000">昭远门路显庆路口</text>
</g>
<!-- 杜家堡&#45;&gt;昭远门路显庆路口 -->
<g id="edge43" class="edge">
<title>杜家堡&#45;&gt;昭远门路显庆路口</title>
<path fill="none" stroke="#00ff00" d="M167.0785,-935.8314C166.9606,-916.4215 169.4203,-885.545 184.022,-864 193.1032,-850.6005 206.7307,-839.9014 220.5216,-831.6769"/>
<polygon fill="#00ff00" stroke="#00ff00" points="222.5389,-834.559 229.5616,-826.626 219.1246,-828.4481 222.5389,-834.559"/>
</g>
<!-- 杜家堡欣苑小区 -->
<g id="node30" class="node">
<title>杜家堡欣苑小区</title>
<ellipse fill="none" stroke="#000000" cx="76.022" cy="-810" rx="76.0439" ry="18"/>
<text text-anchor="middle" x="76.022" y="-805.8" font-family="Times,serif" font-size="14.00" fill="#000000">杜家堡欣苑小区</text>
</g>
<!-- 杜家堡&#45;&gt;杜家堡欣苑小区 -->
<g id="edge31" class="edge">
<title>杜家堡&#45;&gt;杜家堡欣苑小区</title>
<path fill="none" stroke="#ff0000" d="M156.9246,-936.6302C140.9862,-911.6831 111.486,-865.5089 92.8537,-836.3454"/>
<polygon fill="#ff0000" stroke="#ff0000" points="95.7806,-834.4257 87.4473,-827.8831 89.8818,-838.1945 95.7806,-834.4257"/>
</g>
<!-- 显庆路中段&#45;&gt;昭远门路显庆路口 -->
<g id="edge11" class="edge">
<title>显庆路中段&#45;&gt;昭远门路显庆路口</title>
<path fill="none" stroke="#0000ff" d="M258.3118,-863.8314C260.1299,-856.131 262.2919,-846.9743 264.3125,-838.4166"/>
<polygon fill="#0000ff" stroke="#0000ff" points="267.7827,-838.95 266.6744,-828.4133 260.97,-837.3414 267.7827,-838.95"/>
</g>
<!-- 昭远门路显庆路口&#45;&gt;景家村 -->
<g id="edge44" class="edge">
<title>昭远门路显庆路口&#45;&gt;景家村</title>
<path fill="none" stroke="#00ff00" d="M293.6977,-827.7649C304.4638,-837.3733 316.5748,-850.1068 324.022,-864 343.336,-900.0316 343.022,-913.1184 343.022,-954 343.022,-1458 343.022,-1458 343.022,-1458 343.022,-1529.7044 255.6436,-1570.6653 200.3448,-1589.4083"/>
<polygon fill="#00ff00" stroke="#00ff00" points="199.1724,-1586.1092 190.757,-1592.5459 201.3496,-1592.762 199.1724,-1586.1092"/>
</g>
<!-- 老洼滩 -->
<g id="node14" class="node">
<title>老洼滩</title>
<ellipse fill="none" stroke="#000000" cx="260.022" cy="-738" rx="45.4608" ry="18"/>
<text text-anchor="middle" x="260.022" y="-733.8" font-family="Times,serif" font-size="14.00" fill="#000000">老洼滩</text>
</g>
<!-- 昭远门路显庆路口&#45;&gt;老洼滩 -->
<g id="edge12" class="edge">
<title>昭远门路显庆路口&#45;&gt;老洼滩</title>
<path fill="none" stroke="#0000ff" d="M268.2462,-791.8314C267.0697,-784.131 265.6708,-774.9743 264.3634,-766.4166"/>
<polygon fill="#0000ff" stroke="#0000ff" points="267.8053,-765.7699 262.8351,-756.4133 260.8856,-766.8272 267.8053,-765.7699"/>
</g>
<!-- 河址西北 -->
<g id="node15" class="node">
<title>河址西北</title>
<ellipse fill="none" stroke="#000000" cx="239.022" cy="-666" rx="52.7157" ry="18"/>
<text text-anchor="middle" x="239.022" y="-661.8" font-family="Times,serif" font-size="14.00" fill="#000000">河址西北</text>
</g>
<!-- 老洼滩&#45;&gt;河址西北 -->
<g id="edge13" class="edge">
<title>老洼滩&#45;&gt;河址西北</title>
<path fill="none" stroke="#0000ff" d="M254.7228,-719.8314C252.4172,-711.9266 249.6641,-702.4872 247.1118,-693.7365"/>
<polygon fill="#0000ff" stroke="#0000ff" points="250.4068,-692.5334 244.2467,-683.9134 243.6868,-694.4934 250.4068,-692.5334"/>
</g>
<!-- 河址西 -->
<g id="node16" class="node">
<title>河址西</title>
<ellipse fill="none" stroke="#000000" cx="173.022" cy="-594" rx="45.2304" ry="18"/>
<text text-anchor="middle" x="173.022" y="-589.8" font-family="Times,serif" font-size="14.00" fill="#000000">河址西</text>
</g>
<!-- 河址西北&#45;&gt;河址西 -->
<g id="edge14" class="edge">
<title>河址西北&#45;&gt;河址西</title>
<path fill="none" stroke="#0000ff" d="M223.0452,-648.5708C214.8572,-639.6385 204.7438,-628.6056 195.758,-618.8029"/>
<polygon fill="#0000ff" stroke="#0000ff" points="198.1889,-616.2752 188.8516,-611.2687 193.0288,-621.0053 198.1889,-616.2752"/>
</g>
<!-- 凤城十路开元路口 -->
<g id="node17" class="node">
<title>凤城十路开元路口</title>
<ellipse fill="none" stroke="#000000" cx="113.022" cy="-522" rx="92.7814" ry="18"/>
<text text-anchor="middle" x="113.022" y="-517.8" font-family="Times,serif" font-size="14.00" fill="#000000">凤城十路开元路口</text>
</g>
<!-- 河址西&#45;&gt;凤城十路开元路口 -->
<g id="edge15" class="edge">
<title>河址西&#45;&gt;凤城十路开元路口</title>
<path fill="none" stroke="#0000ff" d="M158.4976,-576.5708C151.2361,-567.857 142.3087,-557.1441 134.2923,-547.5244"/>
<polygon fill="#0000ff" stroke="#0000ff" points="136.92,-545.2105 127.8294,-539.7689 131.5424,-549.6918 136.92,-545.2105"/>
</g>
<!-- 行政中心 -->
<g id="node20" class="node">
<title>行政中心</title>
<ellipse fill="none" stroke="#000000" cx="175.022" cy="-306" rx="49.7787" ry="18"/>
<text text-anchor="middle" x="175.022" y="-301.8" font-family="Times,serif" font-size="14.00" fill="#000000">行政中心</text>
</g>
<!-- 河址西&#45;&gt;行政中心 -->
<g id="edge35" class="edge">
<title>河址西&#45;&gt;行政中心</title>
<path fill="none" stroke="#ff0000" d="M190.7569,-577.3177C199.915,-567.4574 210.1653,-554.1548 215.022,-540 241.0425,-464.1622 227.3417,-436.4002 203.022,-360 200.0895,-350.7878 195.6737,-341.2587 191.2105,-332.8173"/>
<polygon fill="#ff0000" stroke="#ff0000" points="194.1356,-330.8749 186.2277,-323.8239 188.0126,-334.2673 194.1356,-330.8749"/>
</g>
<!-- 未央路凤城十路口 -->
<g id="node18" class="node">
<title>未央路凤城十路口</title>
<ellipse fill="none" stroke="#000000" cx="115.022" cy="-450" rx="89.3439" ry="18"/>
<text text-anchor="middle" x="115.022" y="-445.8" font-family="Times,serif" font-size="14.00" fill="#000000">未央路凤城十路口</text>
</g>
<!-- 凤城十路开元路口&#45;&gt;未央路凤城十路口 -->
<g id="edge16" class="edge">
<title>凤城十路开元路口&#45;&gt;未央路凤城十路口</title>
<path fill="none" stroke="#0000ff" d="M113.5266,-503.8314C113.7405,-496.131 113.9949,-486.9743 114.2326,-478.4166"/>
<polygon fill="#0000ff" stroke="#0000ff" points="117.7314,-478.5066 114.5105,-468.4133 110.7341,-478.3122 117.7314,-478.5066"/>
</g>
<!-- 城市运动公园 -->
<g id="node19" class="node">
<title>城市运动公园</title>
<ellipse fill="none" stroke="#000000" cx="129.022" cy="-378" rx="64.8331" ry="18"/>
<text text-anchor="middle" x="129.022" y="-373.8" font-family="Times,serif" font-size="14.00" fill="#000000">城市运动公园</text>
</g>
<!-- 未央路凤城十路口&#45;&gt;城市运动公园 -->
<g id="edge17" class="edge">
<title>未央路凤城十路口&#45;&gt;城市运动公园</title>
<path fill="none" stroke="#0000ff" d="M118.5547,-431.8314C120.052,-424.131 121.8325,-414.9743 123.4965,-406.4166"/>
<polygon fill="#0000ff" stroke="#0000ff" points="126.9685,-406.8975 125.4416,-396.4133 120.0972,-405.5614 126.9685,-406.8975"/>
</g>
<!-- 城市运动公园&#45;&gt;行政中心 -->
<g id="edge18" class="edge">
<title>城市运动公园&#45;&gt;行政中心</title>
<path fill="none" stroke="#0000ff" d="M140.3927,-360.2022C145.7961,-351.7448 152.3615,-341.4685 158.3169,-332.147"/>
<polygon fill="#0000ff" stroke="#0000ff" points="161.3475,-333.9044 163.782,-323.593 155.4486,-330.1356 161.3475,-333.9044"/>
</g>
<!-- 张家堡 -->
<g id="node21" class="node">
<title>张家堡</title>
<ellipse fill="none" stroke="#000000" cx="138.022" cy="-234" rx="45.9438" ry="18"/>
<text text-anchor="middle" x="138.022" y="-229.8" font-family="Times,serif" font-size="14.00" fill="#000000">张家堡</text>
</g>
<!-- 行政中心&#45;&gt;张家堡 -->
<g id="edge19" class="edge">
<title>行政中心&#45;&gt;张家堡</title>
<path fill="none" stroke="#0000ff" d="M165.8759,-288.2022C161.6511,-279.981 156.543,-270.041 151.8611,-260.9301"/>
<polygon fill="#0000ff" stroke="#0000ff" points="154.8748,-259.1371 147.191,-251.8425 148.6488,-262.3366 154.8748,-259.1371"/>
</g>
<!-- 尤家庄 -->
<g id="node23" class="node">
<title>尤家庄</title>
<ellipse fill="none" stroke="#000000" cx="174.022" cy="-90" rx="38.9978" ry="18"/>
<text text-anchor="middle" x="174.022" y="-85.8" font-family="Times,serif" font-size="14.00" fill="#000000">尤家庄</text>
</g>
<!-- 行政中心&#45;&gt;尤家庄 -->
<g id="edge36" class="edge">
<title>行政中心&#45;&gt;尤家庄</title>
<path fill="none" stroke="#ff0000" d="M185.9397,-288.2273C202.995,-258.1175 232.3046,-195.3425 215.022,-144 211.3794,-133.1787 204.6108,-122.8052 197.6081,-114.0937"/>
<polygon fill="#ff0000" stroke="#ff0000" points="200.0833,-111.6033 190.9169,-106.2903 194.7694,-116.1599 200.0833,-111.6033"/>
</g>
<!-- 未央路凤城五路口 -->
<g id="node22" class="node">
<title>未央路凤城五路口</title>
<ellipse fill="none" stroke="#000000" cx="115.022" cy="-162" rx="91.0893" ry="18"/>
<text text-anchor="middle" x="115.022" y="-157.8" font-family="Times,serif" font-size="14.00" fill="#000000">未央路凤城五路口</text>
</g>
<!-- 张家堡&#45;&gt;未央路凤城五路口 -->
<g id="edge20" class="edge">
<title>张家堡&#45;&gt;未央路凤城五路口</title>
<path fill="none" stroke="#0000ff" d="M132.2181,-215.8314C129.7312,-208.0463 126.7689,-198.7729 124.0094,-190.1347"/>
<polygon fill="#0000ff" stroke="#0000ff" points="127.281,-188.874 120.904,-180.4133 120.613,-191.0041 127.281,-188.874"/>
</g>
<!-- 未央路凤城五路口&#45;&gt;尤家庄 -->
<g id="edge21" class="edge">
<title>未央路凤城五路口&#45;&gt;尤家庄</title>
<path fill="none" stroke="#0000ff" d="M129.6062,-144.2022C136.8576,-135.3531 145.7407,-124.5127 153.652,-114.8583"/>
<polygon fill="#0000ff" stroke="#0000ff" points="156.3806,-117.0504 160.0117,-107.0972 150.9663,-112.6136 156.3806,-117.0504"/>
</g>
<!-- 尤家庄&#45;&gt;市图书馆 -->
<g id="edge22" class="edge">
<title>尤家庄&#45;&gt;市图书馆</title>
<path fill="none" stroke="#0000ff" d="M168.1062,-72.2022C167.3224,-64.3864 167.0909,-55.0171 167.4117,-46.2836"/>
<polygon fill="#0000ff" stroke="#0000ff" points="170.918,-46.2999 168.0769,-36.0931 163.9329,-45.8439 170.918,-46.2999"/>
</g>
<!-- 尤家庄&#45;&gt;市图书馆 -->
<g id="edge37" class="edge">
<title>尤家庄&#45;&gt;市图书馆</title>
<path fill="none" stroke="#ff0000" d="M179.9377,-72.2022C180.7215,-64.3864 180.953,-55.0171 180.6322,-46.2836"/>
<polygon fill="#ff0000" stroke="#ff0000" points="184.111,-45.8439 179.967,-36.0931 177.1259,-46.2999 184.111,-45.8439"/>
</g>
<!-- 北辰路锦绣天下 -->
<g id="node25" class="node">
<title>北辰路锦绣天下</title>
<ellipse fill="none" stroke="#000000" cx="144.022" cy="-1458" rx="83.9919" ry="18"/>
<text text-anchor="middle" x="144.022" y="-1453.8" font-family="Times,serif" font-size="14.00" fill="#000000">北辰路锦绣天下</text>
</g>
<!-- 北辰路元朔大道口&#45;&gt;北辰路锦绣天下 -->
<g id="edge23" class="edge">
<title>北辰路元朔大道口&#45;&gt;北辰路锦绣天下</title>
<path fill="none" stroke="#ff0000" d="M152.9938,-1511.8314C151.7104,-1504.131 150.1843,-1494.9743 148.7581,-1486.4166"/>
<polygon fill="#ff0000" stroke="#ff0000" points="152.1873,-1485.7018 147.0908,-1476.4133 145.2825,-1486.8526 152.1873,-1485.7018"/>
</g>
<!-- 上庄村 -->
<g id="node26" class="node">
<title>上庄村</title>
<ellipse fill="none" stroke="#000000" cx="176.022" cy="-1386" rx="35.3755" ry="18"/>
<text text-anchor="middle" x="176.022" y="-1381.8" font-family="Times,serif" font-size="14.00" fill="#000000">上庄村</text>
</g>
<!-- 北辰路元朔大道口&#45;&gt;上庄村 -->
<g id="edge46" class="edge">
<title>北辰路元朔大道口&#45;&gt;上庄村</title>
<path fill="none" stroke="#00ff00" d="M195.5979,-1513.8057C211.4697,-1505.1115 228.0901,-1492.6893 237.022,-1476 244.5717,-1461.8932 243.5913,-1454.5892 237.022,-1440 230.8069,-1426.1977 219.1271,-1414.4979 207.638,-1405.5551"/>
<polygon fill="#00ff00" stroke="#00ff00" points="209.5293,-1402.6025 199.3868,-1399.5399 205.4057,-1408.259 209.5293,-1402.6025"/>
</g>
<!-- 北辰路锦绣天下&#45;&gt;上庄村 -->
<g id="edge24" class="edge">
<title>北辰路锦绣天下&#45;&gt;上庄村</title>
<path fill="none" stroke="#ff0000" d="M152.0969,-1439.8314C155.6865,-1431.7547 159.9881,-1422.0761 163.9478,-1413.1668"/>
<polygon fill="#ff0000" stroke="#ff0000" points="167.1973,-1414.473 168.0604,-1403.9134 160.8006,-1411.63 167.1973,-1414.473"/>
</g>
<!-- 西安医学院未央校区 -->
<g id="node27" class="node">
<title>西安医学院未央校区</title>
<ellipse fill="none" stroke="#000000" cx="176.022" cy="-1314" rx="106.4892" ry="18"/>
<text text-anchor="middle" x="176.022" y="-1309.8" font-family="Times,serif" font-size="14.00" fill="#000000">西安医学院未央校区</text>
</g>
<!-- 上庄村&#45;&gt;西安医学院未央校区 -->
<g id="edge25" class="edge">
<title>上庄村&#45;&gt;西安医学院未央校区</title>
<path fill="none" stroke="#ff0000" d="M170.1062,-1368.2022C169.3224,-1360.3864 169.0909,-1351.0171 169.4117,-1342.2836"/>
<polygon fill="#ff0000" stroke="#ff0000" points="172.918,-1342.2999 170.0769,-1332.0931 165.9329,-1341.8439 172.918,-1342.2999"/>
</g>
<!-- 上庄村&#45;&gt;西安医学院未央校区 -->
<g id="edge47" class="edge">
<title>上庄村&#45;&gt;西安医学院未央校区</title>
<path fill="none" stroke="#00ff00" d="M181.9377,-1368.2022C182.7215,-1360.3864 182.953,-1351.0171 182.6322,-1342.2836"/>
<polygon fill="#00ff00" stroke="#00ff00" points="186.111,-1341.8439 181.967,-1332.0931 179.1259,-1342.2999 186.111,-1341.8439"/>
</g>
<!-- 西安医学院未央校区北门 -->
<g id="node28" class="node">
<title>西安医学院未央校区北门</title>
<ellipse fill="none" stroke="#000000" cx="176.022" cy="-1242" rx="127.9025" ry="18"/>
<text text-anchor="middle" x="176.022" y="-1237.8" font-family="Times,serif" font-size="14.00" fill="#000000">西安医学院未央校区北门</text>
</g>
<!-- 西安医学院未央校区&#45;&gt;西安医学院未央校区北门 -->
<g id="edge26" class="edge">
<title>西安医学院未央校区&#45;&gt;西安医学院未央校区北门</title>
<path fill="none" stroke="#ff0000" d="M170.0696,-1295.8314C169.3191,-1288.131 169.0982,-1278.9743 169.4069,-1270.4166"/>
<polygon fill="#ff0000" stroke="#ff0000" points="172.9012,-1270.6161 170.0459,-1260.4133 165.9154,-1270.1697 172.9012,-1270.6161"/>
</g>
<!-- 西安医学院未央校区&#45;&gt;西安医学院未央校区北门 -->
<g id="edge38" class="edge">
<title>西安医学院未央校区&#45;&gt;西安医学院未央校区北门</title>
<path fill="none" stroke="#00ff00" d="M181.9743,-1295.8314C182.7248,-1288.131 182.9457,-1278.9743 182.637,-1270.4166"/>
<polygon fill="#00ff00" stroke="#00ff00" points="186.1285,-1270.1697 181.998,-1260.4133 179.1427,-1270.6161 186.1285,-1270.1697"/>
</g>
<!-- 武德路龙朔路口 -->
<g id="node29" class="node">
<title>武德路龙朔路口</title>
<ellipse fill="none" stroke="#000000" cx="171.022" cy="-1170" rx="87.889" ry="18"/>
<text text-anchor="middle" x="171.022" y="-1165.8" font-family="Times,serif" font-size="14.00" fill="#000000">武德路龙朔路口</text>
</g>
<!-- 西安医学院未央校区北门&#45;&gt;武德路龙朔路口 -->
<g id="edge27" class="edge">
<title>西安医学院未央校区北门&#45;&gt;武德路龙朔路口</title>
<path fill="none" stroke="#ff0000" d="M168.8078,-1223.8314C167.5227,-1216.131 166.6659,-1206.9743 166.3802,-1198.4166"/>
<polygon fill="#ff0000" stroke="#ff0000" points="169.8803,-1198.3936 166.3246,-1188.4133 162.8804,-1198.4326 169.8803,-1198.3936"/>
</g>
<!-- 西安医学院未央校区北门&#45;&gt;武德路龙朔路口 -->
<g id="edge39" class="edge">
<title>西安医学院未央校区北门&#45;&gt;武德路龙朔路口</title>
<path fill="none" stroke="#00ff00" d="M180.7126,-1223.8314C180.9283,-1216.131 180.5133,-1206.9743 179.6104,-1198.4166"/>
<polygon fill="#00ff00" stroke="#00ff00" points="183.0677,-1197.863 178.2767,-1188.4133 176.1291,-1198.7881 183.0677,-1197.863"/>
</g>
<!-- 武德路龙朔路口&#45;&gt;西安工业大学未央校区 -->
<g id="edge28" class="edge">
<title>武德路龙朔路口&#45;&gt;西安工业大学未央校区</title>
<path fill="none" stroke="#ff0000" d="M164.3125,-1151.8314C163.2413,-1144.131 162.6388,-1134.9743 162.5909,-1126.4166"/>
<polygon fill="#ff0000" stroke="#ff0000" points="166.0901,-1126.4886 162.8132,-1116.4133 159.0918,-1126.333 166.0901,-1126.4886"/>
</g>
<!-- 武德路龙朔路口&#45;&gt;西安工业大学未央校区 -->
<g id="edge40" class="edge">
<title>武德路龙朔路口&#45;&gt;西安工业大学未央校区</title>
<path fill="none" stroke="#00ff00" d="M176.2173,-1151.8314C176.6469,-1144.131 176.4863,-1134.9743 175.8211,-1126.4166"/>
<polygon fill="#00ff00" stroke="#00ff00" points="179.2956,-1125.9906 174.7652,-1116.4133 172.3343,-1126.7254 179.2956,-1125.9906"/>
</g>
<!-- 龙朔路元朔大道口 -->
<g id="node31" class="node">
<title>龙朔路元朔大道口</title>
<ellipse fill="none" stroke="#000000" cx="97.022" cy="-738" rx="89.5447" ry="18"/>
<text text-anchor="middle" x="97.022" y="-733.8" font-family="Times,serif" font-size="14.00" fill="#000000">龙朔路元朔大道口</text>
</g>
<!-- 杜家堡欣苑小区&#45;&gt;龙朔路元朔大道口 -->
<g id="edge32" class="edge">
<title>杜家堡欣苑小区&#45;&gt;龙朔路元朔大道口</title>
<path fill="none" stroke="#ff0000" d="M81.3211,-791.8314C83.5918,-784.0463 86.2965,-774.7729 88.816,-766.1347"/>
<polygon fill="#ff0000" stroke="#ff0000" points="92.2113,-766.9933 91.6514,-756.4133 85.4913,-765.0332 92.2113,-766.9933"/>
</g>
<!-- 吕小寨 -->
<g id="node32" class="node">
<title>吕小寨</title>
<ellipse fill="none" stroke="#000000" cx="119.022" cy="-666" rx="38.2663" ry="18"/>
<text text-anchor="middle" x="119.022" y="-661.8" font-family="Times,serif" font-size="14.00" fill="#000000">吕小寨</text>
</g>
<!-- 龙朔路元朔大道口&#45;&gt;吕小寨 -->
<g id="edge33" class="edge">
<title>龙朔路元朔大道口&#45;&gt;吕小寨</title>
<path fill="none" stroke="#ff0000" d="M102.5735,-719.8314C104.9888,-711.9266 107.8731,-702.4872 110.5469,-693.7365"/>
<polygon fill="#ff0000" stroke="#ff0000" points="113.9734,-694.4997 113.5484,-683.9134 107.2789,-692.4541 113.9734,-694.4997"/>
</g>
<!-- 吕小寨&#45;&gt;河址西 -->
<g id="edge34" class="edge">
<title>吕小寨&#45;&gt;河址西</title>
<path fill="none" stroke="#ff0000" d="M131.8192,-648.937C138.3805,-640.1886 146.5061,-629.3545 153.8028,-619.6256"/>
<polygon fill="#ff0000" stroke="#ff0000" points="156.7414,-621.5407 159.9414,-611.4407 151.1414,-617.3407 156.7414,-621.5407"/>
</g>
</g>
</svg>
